<svg width="1920" height="64" viewBox="0 0 1920 64" fill="none" xmlns="http://www.w3.org/2000/svg">
<path d="M1922 63.451H0V26.951C8.5 21.951 34.6 14.951 71 26.951C116.5 41.9511 142.5 39.951 134 11.951C125.5 -16.0491 162 11.951 190 26.951C218 41.9511 259.5 39.951 285 26.951C310.5 13.951 387 11.951 473.5 26.951C560 41.9511 549 26.951 644 11.951C739 -3.04908 730.5 39.951 843 26.951C955.5 13.951 1154.5 63.451 1141.5 39.951C1128.5 16.451 1628 13.951 1652 26.951C1676 39.951 1809.5 24.951 1857 39.951C1895 51.951 1916.17 44.951 1922 39.951V63.451Z" fill="#D5F5F9"/>
</svg>
